<svg xmlns="http://www.w3.org/2000/svg" viewBox="0 0 512 512" width="512" height="512"><defs>
    <linearGradient id="tile" x1="0" y1="0" x2="0" y2="1"><stop offset="0" stop-color="#241a12"/><stop offset="1" stop-color="#15100b"/></linearGradient>
    <linearGradient id="ring" x1="0.12" y1="0.08" x2="0.9" y2="0.96"><stop offset="0" stop-color="#f3d59b"/><stop offset="0.46" stop-color="#d3a55f"/><stop offset="1" stop-color="#a5793b"/></linearGradient>
    <linearGradient id="sky" x1="0" y1="0" x2="0" y2="1"><stop offset="0" stop-color="#38210f"/><stop offset="0.60" stop-color="#8a542a"/><stop offset="1" stop-color="#ecc588"/></linearGradient>
    <radialGradient id="sun" cx="50%" cy="44%" r="62%"><stop offset="0" stop-color="#fdefc9"/><stop offset="55%" stop-color="#f4d193"/><stop offset="100%" stop-color="#e2ba79"/></radialGradient>
    <clipPath id="disc"><circle cx="256" cy="256" r="119"/></clipPath></defs><rect width="512" height="512" rx="116" fill="url(#tile)"/>
    <g clip-path="url(#disc)">
      <rect x="118" y="118" width="276" height="276" fill="url(#sky)"/>
      <circle cx="256" cy="286" r="62" fill="url(#sun)"/>
      <rect x="118" y="300" width="276" height="94" fill="#b9863f" opacity="0.5"/>
      <g fill="#fbe6b6">
        <rect x="210" y="316" width="92" height="9" rx="4" opacity="0.85"/>
        <rect x="194" y="337" width="124" height="8" rx="4" opacity="0.52"/>
        <rect x="182" y="357" width="148" height="7" rx="3.5" opacity="0.3"/>
      </g>
    </g>
    <circle cx="256" cy="256" r="146" fill="none" stroke="url(#ring)" stroke-width="58"/>
    <path d="M172 136 A146 146 0 0 1 340 136" fill="none" stroke="#ffe9bd" stroke-width="9" stroke-linecap="round" opacity="0.45"/></svg>